HIERARCHY
ROOT Hips
{
	OFFSET -3.958830 18.904000 13.208200
	CHANNELS 6 Xposition Yposition Zposition Zrotation Yrotation Xrotation 
	JOINT LHipJoint
	{
		OFFSET 0.000000 0.000000 0.000000
		CHANNELS 3 Zrotation Yrotation Xrotation
		JOINT LeftUpLeg
		{
			OFFSET 1.800000 -1.400000 0.085000
			CHANNELS 3 Zrotation Yrotation Xrotation
			JOINT LeftLeg
			{
				OFFSET 2.215000 -6.000000 0.000000
				CHANNELS 3 Zrotation Yrotation Xrotation
				JOINT LeftFoot
				{
					OFFSET 2.500000 -6.900000 0.000000
					CHANNELS 3 Zrotation Yrotation Xrotation
					JOINT LeftToeBase
					{
						OFFSET 0.200000 -0.500000 1.950000
						CHANNELS 3 Zrotation Yrotation Xrotation
						End Site
						{
							OFFSET 0.000000 0.000000 0.000000
						}
					}
				}
			}
		}
	}
	JOINT RHipJoint
	{
		OFFSET 0.000000 0.000000 0.000000
		CHANNELS 3 Zrotation Yrotation Xrotation
		JOINT RightUpLeg
		{
			OFFSET -1.800000 -1.400000 0.085000
			CHANNELS 3 Zrotation Yrotation Xrotation
			JOINT RightLeg
			{
				OFFSET -2.215000 -6.000000 0.000000
				CHANNELS 3 Zrotation Yrotation Xrotation
				JOINT RightFoot
				{
					OFFSET -2.500000 -6.900000 0.000000
					CHANNELS 3 Zrotation Yrotation Xrotation
					JOINT RightToeBase
					{
						OFFSET -0.200000 -0.500000 1.950000
						CHANNELS 3 Zrotation Yrotation Xrotation
						End Site
						{
							OFFSET 0.000000 0.000000 0.000000
						}
					}
				}
			}
		}
	}
	JOINT LowerBack
	{
		OFFSET 0.000000 0.000000 0.000000
		CHANNELS 3 Zrotation Yrotation Xrotation
		JOINT Spine
		{
			OFFSET -0.087000 1.940000 -0.288900
			CHANNELS 3 Zrotation Yrotation Xrotation
			JOINT Spine1
			{
				OFFSET 0.000000 1.950000 0.060000
				CHANNELS 3 Zrotation Yrotation Xrotation
				JOINT Neck
				{
					OFFSET 0.000000 0.000000 0.000000
					CHANNELS 3 Zrotation Yrotation Xrotation
					JOINT Neck1
					{
						OFFSET 0.000000 1.600000 0.340000
						CHANNELS 3 Zrotation Yrotation Xrotation
						JOINT Head
						{
							OFFSET 0.000000 1.667000 -0.240000
							CHANNELS 3 Zrotation Yrotation Xrotation
							End Site
							{
								OFFSET 0.000000 0.000000 0.000000
							}
						}
					}
				}
				JOINT LeftShoulder
				{
					OFFSET 0.000000 0.000000 0.000000
					CHANNELS 3 Zrotation Yrotation Xrotation
					JOINT LeftArm
					{
						OFFSET 2.700000 1.550000 -0.730000
						CHANNELS 3 Zrotation Yrotation Xrotation
						JOINT LeftForeArm
						{
							OFFSET 5.450000 0.000000 0.000000
							CHANNELS 3 Zrotation Yrotation Xrotation
							JOINT LeftHand
							{
								OFFSET 3.450000 0.000000 0.000000
								CHANNELS 3 Zrotation Yrotation Xrotation
								JOINT LeftHandIndex1
								{
									OFFSET 0.750000 0.000000 0.000000
									CHANNELS 3 Zrotation Yrotation Xrotation
									End Site
									{
										OFFSET 0.000000 0.000000 0.000000
									}
								}
							}
						}
					}
				}
				JOINT RightShoulder
				{
					OFFSET 0.000000 0.000000 0.000000
					CHANNELS 3 Zrotation Yrotation Xrotation
					JOINT RightArm
					{
						OFFSET -2.700000 1.550000 -0.730000
						CHANNELS 3 Zrotation Yrotation Xrotation
						JOINT RightForeArm
						{
							OFFSET -5.450000 0.000000 0.000000
							CHANNELS 3 Zrotation Yrotation Xrotation
							JOINT RightHand
							{
								OFFSET -3.450000 0.000000 0.000000
								CHANNELS 3 Zrotation Yrotation Xrotation
								JOINT RightHandIndex1
								{
									OFFSET -0.750000 0.000000 0.000000
									CHANNELS 3 Zrotation Yrotation Xrotation
									End Site
									{
										OFFSET 0.000000 0.000000 0.000000
									}
								}
							}
						}
					}
				}
			}
		}
	}
}
MOTION
Frames: 11
Frame Time: 0.016667
-0.643900 19.178900 -4.396820 -27.047715 -0.379215 19.132002 -15.697968 6.924485 5.682163 1.770787 -23.586245 -75.360941 -7.826500 48.718005 111.844006 -10.395709 34.139223 -2.064444 9.666950 -1.231220 1.288570 19.223144 -3.352319 7.818853 9.715070 40.503457 -64.960948 -42.110225 35.905468 109.258770 -15.130567 -25.921846 16.120255 -0.149510 6.655800 -0.839300 -4.132406 -1.673190 -11.405325 26.534759 -0.677618 85.665992 3.716289 14.489423 55.004651 20.523991 18.082449 -8.264758 59.998798 -11.445893 46.388247 -53.690920 -21.483430 -100.246870 52.399254 -23.450387 30.511070 73.937293 -40.496384 -140.205941 91.237017 -7.689182 9.861988 -13.721067 -9.665269 14.302170 5.788220 -11.542370 3.976240 -84.465641 13.619584 25.546426 122.860630 52.948901 -49.180606 -90.060729 18.555929 31.982593 -35.320759 1.440647 -7.412410 9.750960 7.807320 -14.776340 
-0.464680 19.143930 -4.385180 -31.081087 -2.206406 19.360844 -15.641523 6.467266 5.777895 5.597778 -20.938739 -76.517976 -9.089148 50.253367 111.156560 -10.530666 33.570744 -2.304837 9.143430 -1.183230 0.939050 19.312031 -3.347950 8.112606 8.470273 42.078765 -66.738275 -35.964453 28.208822 112.200252 -13.672186 -23.439646 16.020157 -0.143060 6.542270 -1.677080 -4.383244 -0.748870 -11.519616 28.643384 -3.325563 84.380972 -1.967658 13.093936 56.661112 23.129705 19.932626 -6.548630 54.041233 -6.668071 47.545772 -54.893160 -23.294330 -95.291360 50.229785 -19.928335 34.199199 74.668101 -41.360447 -134.959676 92.048373 -2.444796 7.594090 -13.613885 -8.999043 13.802330 5.875470 -11.768800 3.472630 -86.060941 4.626801 30.315288 130.791266 57.545830 -64.909598 -91.110881 47.897867 25.446091 -31.161560 3.864503 -7.695240 10.133320 8.165080 -14.583890 
-0.477020 19.115830 -4.348830 -30.302260 -3.037361 19.991443 -15.787797 6.913533 5.825165 6.663530 -20.281578 -76.555078 -18.167983 54.843393 102.875467 -10.484632 33.497462 -1.988103 8.450850 -1.624300 0.307020 19.115337 -3.110339 8.016932 5.910337 41.409251 -68.155322 -34.378711 26.197815 114.268381 -13.292751 -22.987330 16.111584 -0.426390 7.126100 -2.122970 -3.939216 -1.805052 -11.482239 28.024651 -2.703717 84.391496 -0.482686 15.548647 59.143626 22.323272 20.914205 -11.728274 58.170440 -12.199655 48.303333 -54.437430 -24.811390 -96.194580 48.123715 -26.445420 35.074867 71.861195 -34.135644 -138.407351 91.321728 -11.043482 5.279427 -14.525546 -11.124403 13.812630 6.046530 -12.038220 3.411350 -84.565296 8.432657 26.307841 124.008683 52.471137 -68.452010 -93.295076 40.866259 13.061664 -28.556769 2.749680 -8.296150 10.732720 8.609840 -14.277830 
-0.446070 19.041960 -4.315910 -32.715848 -2.155922 20.048442 -15.762753 6.858215 5.942570 7.655723 -19.909566 -77.563953 -13.941513 52.789723 106.869728 -10.500647 33.484872 -2.028874 7.335170 -2.341760 -0.409990 19.150291 -3.123347 8.014127 7.155864 41.549017 -67.462067 -35.382667 26.180553 115.676334 -12.818674 -22.829472 16.627887 -0.880000 7.467150 -3.302170 -3.982180 -1.655378 -11.536735 32.236006 -6.472151 83.820426 -5.364039 17.915901 59.558120 24.561642 22.050414 -15.783589 63.715734 -18.714087 49.723648 -56.131760 -26.150790 -96.163220 41.068157 -38.936930 29.768143 69.350174 -34.210625 -127.639305 90.622631 -10.239290 4.621890 -15.150267 -12.014192 13.526030 6.207920 -12.624790 2.946610 -80.706985 12.174724 21.371572 123.518685 45.468476 -65.433398 -94.750904 37.145470 0.004284 -27.583869 2.454945 -9.192750 11.526910 9.398840 -14.112870 
-0.418920 19.104320 -4.284800 -30.519073 -5.638947 19.161325 -15.697619 6.966727 5.751091 4.787898 -18.281409 -75.106016 -17.070167 54.675481 101.590608 -10.993091 32.770095 -2.465004 7.806390 -2.002180 0.200530 19.151813 -3.467850 7.958493 2.735981 41.475558 -67.341133 -31.553797 22.968234 119.440966 -12.281148 -21.623786 16.863073 -0.691590 6.727500 -3.598190 -4.213500 -1.143406 -11.370254 28.978597 -2.438568 86.930868 -2.636003 16.549529 58.785623 22.860280 23.106427 -11.672022 59.833396 -12.544330 46.057921 -55.721980 -27.028670 -96.670400 43.982823 -32.986187 29.739014 71.074965 -34.963373 -127.391120 90.501017 -5.262141 9.183697 -15.134487 -12.428639 13.484690 5.977880 -12.702060 2.651330 -82.725555 7.764017 23.358550 121.613094 47.293108 -86.391419 -103.046509 55.129226 -6.768284 -21.955716 0.867154 -9.037860 11.335150 9.345600 -14.616560 
-0.349440 19.316980 -4.218530 -30.681341 -2.604316 21.233470 -15.431016 6.504048 5.889538 4.600435 -19.748924 -76.293966 -11.171248 49.628925 106.187570 -11.386020 32.198054 -2.848711 7.898700 -1.768100 0.322110 19.432517 -4.019760 7.868738 4.865505 40.062923 -65.049635 -34.426450 25.892438 114.066033 -12.384467 -21.935784 16.925812 -0.582580 6.328650 -3.738460 -4.865286 0.579301 -11.421275 35.198510 -7.905432 85.901255 -7.261066 14.512707 58.233633 24.376582 22.954754 -10.541956 59.949609 -9.781638 44.608656 -55.049060 -28.371600 -100.174440 42.752509 -35.941048 25.261547 72.327925 -34.875730 -112.770875 89.482111 6.410953 10.736471 -13.886061 -9.780446 13.434890 5.842150 -12.595570 2.453280 -80.227387 5.651948 24.719559 123.888141 49.816703 -97.740803 -116.829181 65.794257 -12.337293 -20.137097 -0.233427 -8.979210 11.231910 9.408130 -14.739400 
-0.280230 19.405240 -4.230210 -32.036108 -1.963598 22.374888 -15.262798 6.141068 5.922167 4.240090 -20.027757 -77.638689 -5.716680 45.420497 110.389647 -11.857359 31.555327 -2.838832 7.897330 -1.750760 0.556720 19.641297 -4.313759 7.796807 7.960622 39.894158 -61.874935 -37.822002 28.806078 109.969399 -12.479255 -22.283294 17.158674 -0.585550 6.087580 -4.359000 -5.390149 1.904810 -11.486386 39.293470 -10.648621 83.794870 -10.792583 11.738236 58.396843 23.224924 22.459626 -10.215386 59.486699 -10.599155 47.534930 -52.630570 -27.223540 -99.825080 47.321639 -30.475927 28.528997 70.088205 -34.139476 -115.483259 89.522294 5.228308 10.729268 -13.803383 -10.708136 13.532230 5.739810 -12.855920 2.120000 -80.265379 4.220491 26.100874 125.590312 53.503642 -98.243982 -127.277149 68.444118 -17.497767 -19.574385 -0.978787 -9.303450 11.449260 9.502250 -15.016420 
-0.122350 19.380210 -4.075500 -35.141476 4.267988 23.505834 -15.474686 6.894315 6.369621 4.170345 -24.202625 -78.708628 -1.399432 38.919592 115.837259 -11.380715 30.996980 -1.896695 8.331050 -1.248800 0.292960 19.340952 -4.298622 7.301063 10.080195 35.943207 -59.735123 -37.591962 23.699612 112.804849 -12.853775 -21.891742 17.170344 -0.552050 6.569120 -3.597230 -4.476562 0.120922 -11.399131 45.140822 -18.945372 78.639524 -14.831104 12.769311 60.146974 26.754956 21.092034 -16.775247 58.849554 -20.699627 60.497268 -45.677440 -32.177120 -102.908570 39.199591 -39.669120 33.744942 67.040418 -29.563529 -115.968128 89.365357 -5.500461 3.780962 -12.080290 -10.111646 13.413770 5.628060 -12.306870 3.026940 -76.795700 4.060513 26.245176 121.429799 52.722134 -99.136678 -135.043688 69.292792 -27.709407 -18.521002 -1.955207 -8.621120 11.552860 8.948290 -14.232740 
0.052720 19.449690 -4.039180 -37.995828 6.683434 24.819203 -15.717324 7.488301 6.690063 4.682505 -25.761716 -82.031825 1.004321 31.911569 116.242264 -11.059542 30.392396 -0.400509 8.718780 -1.093340 0.515400 19.109990 -3.848623 7.164809 11.777339 34.834857 -58.196394 -37.600407 20.166552 111.494708 -13.275742 -21.466228 17.098265 -0.753760 7.588290 -2.846490 -3.917755 -1.230488 -11.256915 41.856931 -22.440604 78.315194 -14.731397 16.597348 60.067050 25.534076 19.362827 -23.323686 56.007368 -27.703167 71.038103 -40.934390 -32.219030 -97.561130 38.919083 -42.712088 40.224839 60.092011 -22.894000 -128.035776 89.574450 -18.995502 1.019171 -13.530441 -13.002502 13.554110 5.728900 -11.944940 3.919740 -76.599377 4.832730 28.364434 115.075073 55.050255 -102.272061 -144.620831 71.588613 -35.788343 -17.567694 -2.487207 -8.257120 12.017360 8.376410 -13.530470 
0.175140 19.714240 -4.227470 -37.700976 8.336800 26.282875 -15.491320 7.042824 6.784259 4.391141 -26.202258 -85.613012 -0.488533 28.678637 110.578521 -11.302623 29.591439 0.214644 9.015460 -0.969080 0.579900 19.352981 -4.236092 6.954485 6.688082 34.429247 -61.820023 -33.101066 12.256786 113.442943 -12.877021 -20.118949 17.149371 -0.619580 7.615570 -2.679820 -4.494131 0.391089 -11.172121 41.673602 -25.903573 79.455523 -19.877636 14.889876 54.450005 22.112364 20.034807 -23.281706 56.294408 -29.384173 74.411109 -39.193530 -29.875350 -96.284360 40.210452 -39.848534 40.211496 57.022527 -24.947755 -132.797037 89.340959 -23.172527 3.617484 -14.437988 -15.709606 13.656320 5.664920 -11.849550 4.289170 -76.708352 5.586153 27.051507 116.050391 57.835558 -98.738015 -155.164342 69.797521 -43.130057 -17.009268 -2.940526 -8.162840 12.038040 8.054010 -13.568440 
0.329170 19.845460 -4.379720 -38.270086 15.203061 27.049806 -15.464293 7.043341 7.084762 5.713900 -30.061602 -88.002044 -1.676999 25.949679 108.489918 -11.370033 29.580764 0.362735 7.550210 -2.388690 -0.011390 19.362201 -4.509207 6.339235 2.437623 31.555896 -63.904514 -27.491296 -1.860140 116.651734 -11.268982 -18.399144 17.652737 -1.170110 7.915280 -4.294960 -4.325609 0.740112 -11.315895 42.005381 -31.315547 76.742931 -23.721427 10.352130 51.140165 20.520700 24.133802 -26.951608 52.112702 -28.759003 84.030526 -37.547720 -27.143970 -79.878500 37.188062 -39.420411 40.933121 47.101905 -26.910633 -171.559329 90.830353 -65.946209 9.231145 -21.983195 -28.296816 13.058360 5.823620 -12.899040 3.614770 -77.260596 6.222697 27.526081 109.610356 64.337993 -99.550375 -173.475053 69.842998 -54.334734 -16.626944 -1.968956 -9.360490 13.095520 9.176390 -13.617720 
